<svg xmlns="http://www.w3.org/2000/svg" xmlns:xlink="http://www.w3.org/1999/xlink" version="1.1" viewBox="0 0 3358 2170" style="background: #ffffff"><defs joint-selector="defs"></defs><g joint-selector="layers"  transform="matrix(1,0,0,1,0,0)"><g ></g><g ><!--z-index:0--><!--z-index:1--><!--z-index:2--><!--z-index:3--><!--z-index:4--><!--z-index:5--><!--z-index:6--><!--z-index:7--><!--z-index:8--><!--z-index:9--><!--z-index:10--><!--z-index:11--><!--z-index:12--><!--z-index:13--><!--z-index:14--><!--z-index:15--><!--z-index:16--><!--z-index:17--><!--z-index:18--><!--z-index:19--><!--z-index:20--><g   id="j_79"  transform="translate(20,2126)"><g id="v-1085"><text  id="v-1086" font-size="24px" xml:space="preserve" y="0.8em" font-weight="normal" text-anchor="start" fill="#444444" pointer-events="none" display="block" font-family="Open Sans"><tspan dy="0"  display="none">Friday, September 4, 2026 at 9:33 PM Pacific Daylight Time</tspan></text></g></g><!--z-index:21--><g   id="j_78"  transform="translate(20,2092)"><g id="v-1083"><text  id="v-1084" font-size="24px" xml:space="preserve" y="0.8em" font-weight="normal" text-anchor="start" fill="#444444" pointer-events="none" display="block" font-family="Open Sans"><tspan dy="0"  display="none">START AT 1. From a durable record to an indicator a firewall can act on — and step 2 is the event to instrument: the invariant's read-then-post window.</tspan></text></g></g><!--z-index:22--><g   id="j_77"  transform="translate(20,2046)"><g id="v-1081"><text  id="v-1082" font-size="36px" xml:space="preserve" y="0.8em" font-weight="normal" text-anchor="start" fill="#444444" pointer-events="none" display="block" font-family="Open Sans"><tspan dy="0"  display="none">Dynamic View: dsh harness - Observability</tspan></text></g></g><!--z-index:23--><g   id="j_80"  transform="translate(2683,1183)" style=""><g  id="v-1093" style="opacity: 1;"><rect  id="v-1094" rx="1" ry="1" stroke-width="2" pointer-events="visiblePainted" fill="#2b3a33" stroke="#6fa588" stroke-dasharray="" width="450" height="300"></rect><text  id="v-1095" font-size="36.4px" xml:space="preserve" y="51.400000000000006" font-weight="bold" text-anchor="middle" pointer-events="visible" font-family="Open Sans" fill="#ffffff" dominant-baseline="hanging" transform="matrix(1,0,0,1,225,0)"><tspan dy="0" >Network controls</tspan></text><text  id="v-1096" font-size="18.2px" xml:space="preserve" y="95.80000000000001" text-anchor="middle" font-family="Open Sans" fill="#ffffff" dominant-baseline="hanging" transform="matrix(1,0,0,1,225,0)" style="display: block;"><tspan dy="0" >[Software System]</tspan></text><text  id="v-1097" font-size="26px" xml:space="preserve" y="129" text-anchor="middle" font-family="Open Sans" fill="#ffffff" dominant-baseline="hanging" transform="matrix(1,0,0,1,225,0)" style="display: block;"><tspan dy="0" >Firewall, EDR and secret vault —</tspan><tspan dy="1.2em" x="0" >the things that can actually</tspan><tspan dy="1.2em" x="0" >block a packet, which the</tspan><tspan dy="1.2em" x="0" >harness cannot.</tspan></text><g  id="v-1098" color="#ffffff" transform="matrix(1,0,0,1,222.5,268)" display="none"><g ></g><g ></g><g ></g><g ></g></g><image  id="v-1099"></image></g></g><!--z-index:24--><g   id="j_81"  transform="translate(1933,1183)" style=""><g  id="v-1103" style="opacity: 1;"><rect  id="v-1104" rx="1" ry="1" stroke-width="2" pointer-events="visiblePainted" fill="#2b3a33" stroke="#6fa588" stroke-dasharray="" width="450" height="300"></rect><text  id="v-1105" font-size="36.4px" xml:space="preserve" y="67" font-weight="bold" text-anchor="middle" pointer-events="visible" font-family="Open Sans" fill="#ffffff" dominant-baseline="hanging" transform="matrix(1,0,0,1,225,0)"><tspan dy="0" >OTel collector</tspan></text><text  id="v-1106" font-size="18.2px" xml:space="preserve" y="111.4" text-anchor="middle" font-family="Open Sans" fill="#ffffff" dominant-baseline="hanging" transform="matrix(1,0,0,1,225,0)" style="display: block;"><tspan dy="0" >[Software System]</tspan></text><text  id="v-1107" font-size="26px" xml:space="preserve" y="144.6" text-anchor="middle" font-family="Open Sans" fill="#ffffff" dominant-baseline="hanging" transform="matrix(1,0,0,1,225,0)" style="display: block;"><tspan dy="0" >Where the indicator lands once</tspan><tspan dy="1.2em" x="0" >it leaves the harness. The last</tspan><tspan dy="1.2em" x="0" >hop this repo can reason about.</tspan></text><g  id="v-1108" color="#ffffff" transform="matrix(1,0,0,1,222.5,268)" display="none"><g ></g><g ></g><g ></g><g ></g></g><image  id="v-1109"></image></g></g><!--z-index:25--><g   id="j_83"  transform="translate(393,309)" style=""><g id="v-1124"><rect  id="v-1125" width="1280" height="1626" rx="0" ry="0" stroke-width="2" pointer-events="none" stroke="#a5a9f0" fill="#ffffff" stroke-dasharray=""></rect><text  id="v-1126" font-size="33.599999999999994px" xml:space="preserve" y="1587" font-weight="bold" text-anchor="start" pointer-events="visible" font-family="Open Sans" fill="#a5a9f0" transform="matrix(1,0,0,1,15,0)"><tspan dy="0" >dsh harness</tspan></text><text  id="v-1127" font-size="16.799999999999997px" xml:space="preserve" y="1611" font-weight="normal" text-anchor="start" pointer-events="visible" font-family="Open Sans" fill="#a5a9f0" transform="matrix(1,0,0,1,15,0)"><tspan dy="0" >[Software System]</tspan></text><image  id="v-1128" pointer-events="visible"></image></g></g><!--z-index:26--><g   id="j_82"  transform="translate(1183,329)" style=""><g  id="v-1116" style="opacity: 1;"><path  d="M 0,30 a 225,30 0,0,0 450 0 a 225,30 0,0,0 -450 0 l 0,240 a 225,30 0,0,0 450 0 l 0,-240" id="v-1117" stroke-width="2" pointer-events="visiblePainted" fill="#5a5fa6" stroke="#b9bdf5" stroke-dasharray=""></path><rect  id="v-1118" stroke-width="0" pointer-events="visiblePainted" fill="none" stroke="none" width="450" height="270" x="0" y="30"></rect><text  id="v-1119" font-size="36.4px" xml:space="preserve" y="82" font-weight="bold" text-anchor="middle" pointer-events="visible" font-family="Open Sans" fill="#ffffff" dominant-baseline="hanging" transform="matrix(1,0,0,1,225,0)"><tspan dy="0" >Session store</tspan></text><text  id="v-1120" font-size="18.2px" xml:space="preserve" y="126.4" text-anchor="middle" font-family="Open Sans" fill="#ffffff" dominant-baseline="hanging" transform="matrix(1,0,0,1,225,0)" style="display: block;"><tspan dy="0" >[Container: dsh · session · jsonl · query]</tspan></text><text  id="v-1121" font-size="26px" xml:space="preserve" y="159.6" text-anchor="middle" font-family="Open Sans" fill="#ffffff" dominant-baseline="hanging" transform="matrix(1,0,0,1,225,0)" style="display: block;"><tspan dy="0" >Event-sourced: every step of the</tspan><tspan dy="1.2em" x="0" >chain is already written down</tspan><tspan dy="1.2em" x="0" >here before anyone asks.</tspan></text><g  id="v-1122" font-weight="normal" text-anchor="middle" color="#ffffff" transform="matrix(1,0,0,1,222.5,268)" display="none"><g ></g><g ></g><g ></g><g ></g></g><image  id="v-1123"></image></g></g><!--z-index:27--><g   id="j_85"  transform="translate(413,817)" style=""><g id="v-1145"><rect  id="v-1146" width="1240" height="1019" rx="0" ry="0" stroke-width="2" pointer-events="none" stroke="#b9bdf5" fill="#ffffff" stroke-dasharray=""></rect><text  id="v-1147" font-size="33.599999999999994px" xml:space="preserve" y="980" font-weight="bold" text-anchor="start" pointer-events="visible" font-family="Open Sans" fill="#b9bdf5" transform="matrix(1,0,0,1,15,0)"><tspan dy="0" >Observability</tspan></text><text  id="v-1148" font-size="16.799999999999997px" xml:space="preserve" y="1004" font-weight="normal" text-anchor="start" pointer-events="visible" font-family="Open Sans" fill="#b9bdf5" transform="matrix(1,0,0,1,15,0)"><tspan dy="0" >[Container]</tspan></text><image  id="v-1149" pointer-events="visible"></image></g></g><!--z-index:28--><g   id="j_84"  transform="translate(433,1437)" style=""><g  id="v-1138" style="opacity: 1;"><rect  id="v-1139" rx="1" ry="1" stroke-width="2" pointer-events="visiblePainted" fill="#8b92ce" stroke="#d2d5fa" stroke-dasharray="" width="450" height="300"></rect><text  id="v-1140" font-size="36.4px" xml:space="preserve" y="82.6" font-weight="bold" text-anchor="middle" pointer-events="visible" font-family="Open Sans" fill="#14162b" dominant-baseline="hanging" transform="matrix(1,0,0,1,225,0)"><tspan dy="0" >Injection scorer</tspan></text><text  id="v-1141" font-size="18.2px" xml:space="preserve" y="127" text-anchor="middle" font-family="Open Sans" fill="#14162b" dominant-baseline="hanging" transform="matrix(1,0,0,1,225,0)" style="display: block;"><tspan dy="0" >[Component: dsh-session-telemetry]</tspan></text><text  id="v-1142" font-size="26px" xml:space="preserve" y="160.2" text-anchor="middle" font-family="Open Sans" fill="#14162b" dominant-baseline="hanging" transform="matrix(1,0,0,1,225,0)" style="display: block;"><tspan dy="0" >Suspects: scores ingested text</tspan><tspan dy="1.2em" x="0" >for instruction patterns.</tspan></text><g  id="v-1143" color="#14162b" transform="matrix(1,0,0,1,222.5,268)" display="none"><g ></g><g ></g><g ></g><g ></g></g><image  id="v-1144"></image></g></g><!--z-index:29--><g   id="j_86"  transform="translate(433,837)" style=""><g  id="v-1156" style="opacity: 1;"><rect  id="v-1157" rx="1" ry="1" stroke-width="2" pointer-events="visiblePainted" fill="#8b92ce" stroke="#d2d5fa" stroke-dasharray="" width="450" height="300"></rect><text  id="v-1158" font-size="36.4px" xml:space="preserve" y="67" font-weight="bold" text-anchor="middle" pointer-events="visible" font-family="Open Sans" fill="#14162b" dominant-baseline="hanging" transform="matrix(1,0,0,1,225,0)"><tspan dy="0" >Chain invariant</tspan></text><text  id="v-1159" font-size="18.2px" xml:space="preserve" y="111.4" text-anchor="middle" font-family="Open Sans" fill="#14162b" dominant-baseline="hanging" transform="matrix(1,0,0,1,225,0)" style="display: block;"><tspan dy="0" >[Component: dsh-invariants]</tspan></text><text  id="v-1160" font-size="26px" xml:space="preserve" y="144.6" text-anchor="middle" font-family="Open Sans" fill="#14162b" dominant-baseline="hanging" transform="matrix(1,0,0,1,225,0)" style="display: block;"><tspan dy="0" >Proves: a secret from an earlier</tspan><tspan dy="1.2em" x="0" >result reached a later URL with</tspan><tspan dy="1.2em" x="0" >no approval between.</tspan></text><g  id="v-1161" color="#14162b" transform="matrix(1,0,0,1,222.5,268)" display="none"><g ></g><g ></g><g ></g><g ></g></g><image  id="v-1162"></image></g></g><!--z-index:30--><g   id="j_87"  transform="translate(1183,1183)" style=""><g  id="v-1169" style="opacity: 1;"><rect  id="v-1170" rx="1" ry="1" stroke-width="2" pointer-events="visiblePainted" fill="#8b92ce" stroke="#d2d5fa" stroke-dasharray="" width="450" height="300"></rect><text  id="v-1171" font-size="36.4px" xml:space="preserve" y="67" font-weight="bold" text-anchor="middle" pointer-events="visible" font-family="Open Sans" fill="#14162b" dominant-baseline="hanging" transform="matrix(1,0,0,1,225,0)"><tspan dy="0" >OTLP exporter</tspan></text><text  id="v-1172" font-size="18.2px" xml:space="preserve" y="111.4" text-anchor="middle" font-family="Open Sans" fill="#14162b" dominant-baseline="hanging" transform="matrix(1,0,0,1,225,0)" style="display: block;"><tspan dy="0" >[Component: dsh-session-telemetry-otel]</tspan></text><text  id="v-1173" font-size="26px" xml:space="preserve" y="144.6" text-anchor="middle" font-family="Open Sans" fill="#14162b" dominant-baseline="hanging" transform="matrix(1,0,0,1,225,0)" style="display: block;"><tspan dy="0" >Tells: carries the indicator to</tspan><tspan dy="1.2em" x="0" >something that can block a</tspan><tspan dy="1.2em" x="0" >packet.</tspan></text><g  id="v-1174" color="#14162b" transform="matrix(1,0,0,1,222.5,268)" display="none"><g ></g><g ></g><g ></g><g ></g></g><image  id="v-1175"></image></g></g><!--z-index:31--><g   id="j_88" ><path  stroke="#d7dbe3" d="M 1219 629 L 1191 652 C 1185.6666666666665 656 1181.6666666666665 661 1179 667 L 887 1278 C 884.3333333333333 1284 881 1289.6666666666665 877 1295 L 771 1437" id="v-1196" stroke-width="2" stroke-dasharray="8 8" fill="none"></path><path  fill="black" stroke="black" d="M 0 0 0 0" transform="matrix(-0.7825416723338292,0.6225982099725099,-0.6225982099725099,-0.7825416723338292,1219.449951171875,629)"></path><path  fill="#d7dbe3" stroke="#d7dbe3" d="M 20 0 L 0 10 L 20 20 z" id="v-1198" transform="matrix(0.6000000826393694,-0.799999938020466,0.799999938020466,0.6000000826393694,762.4999997934017,1430.9999985538109)"></path><path  d="M 1219 629 L 1191 652 C 1185.6666666666665 656 1181.6666666666665 661 1179 667 L 887 1278 C 884.3333333333333 1284 881 1289.6666666666665 877 1295 L 771 1437" id="v-1197" fill="none" style="cursor: auto; pointer-events: visiblepainted;"></path><g ><g id="v-1187"  label-idx="0" cursor="move" transform="matrix(1,0,0,1,1002.53466796875,1012.7677001953125)" style="cursor: default;"><rect joint-selector="rect" id="v-1191" fill="#ffffff" rx="3" ry="3" pointer-events="none" width="190.82228088378906" height="89.08126449584961" transform="matrix(1,0,0,1,-95.4,-44.6)"></rect><text joint-selector="text" id="v-1190" font-size="24px" xml:space="preserve" y="0.8em" fill="#d7dbe3" text-anchor="middle" pointer-events="none" font-family="Open Sans" font-weight="normal" transform="matrix(1,0,0,1,0,-38.6)"><tspan dy="0" >1: hands</tspan><tspan dy="1.2em" x="0" >redacted records</tspan><tspan dy="1.2em" x="0" >to</tspan></text></g><g id="v-1188"  label-idx="1" cursor="move" transform="matrix(1,0,0,1,1002.53466796875,1082.0477294921875)" style="cursor: default;"><rect joint-selector="rect" id="v-1193" fill="#ffffff" rx="3" ry="3"  pointer-events="none" width="199.87313842773438" height="43.24625015258789" transform="matrix(1,0,0,1,-99.9,-21.6)" style="display: block;"></rect><text joint-selector="text" id="v-1192" font-size="16.799999999999997px" xml:space="preserve" y="0.8em" fill="#d7dbe3" text-anchor="middle" pointer-events="none"  font-family="Open Sans" font-weight="normal" transform="matrix(1,0,0,1,0,-16.2)" style="display: block;"><tspan dy="0" >[sessionTelemetry/record</tspan><tspan dy="1.2em" x="0" >]</tspan></text></g><g id="v-1189"  label-idx="2" cursor="move" transform="matrix(1,0,0,1,992.53466796875,1100.5277099609375)" style="cursor: default;"><rect joint-selector="rect" id="v-1195" fill="#ffffff" rx="3" ry="3"  width="0" height="0" transform="matrix(1,0,0,1,0,0)" display="none"></rect><text joint-selector="text" id="v-1194" fill="#000000" font-size="14" text-anchor="middle" pointer-events="none"></text></g></g><g  display="none" style="display: none;"><g  transform="translate(1183, 658)" id="v-1183"><circle  idx="0" r="10"></circle><path  idx="0" d="M16,5.333c-7.732,0-14,4.701-14,10.5c0,1.982,0.741,3.833,2.016,5.414L2,25.667l5.613-1.441c2.339,1.317,5.237,2.107,8.387,2.107c7.732,0,14-4.701,14-10.5C30,10.034,23.732,5.333,16,5.333z" transform="translate(5, -33)"></path><path  idx="0" transform="scale(.8) translate(9.5, -37)" d="M24.778,21.419 19.276,15.917 24.777,10.415 21.949,7.585 16.447,13.087 10.945,7.585 8.117,10.415 13.618,15.917 8.116,21.419 10.946,24.248 16.447,18.746 21.948,24.248z"><title>Remove vertex.</title></path></g><g  transform="translate(883, 1287)" id="v-1184"><circle  idx="1" r="10"></circle><path  idx="1" d="M16,5.333c-7.732,0-14,4.701-14,10.5c0,1.982,0.741,3.833,2.016,5.414L2,25.667l5.613-1.441c2.339,1.317,5.237,2.107,8.387,2.107c7.732,0,14-4.701,14-10.5C30,10.034,23.732,5.333,16,5.333z" transform="translate(5, -33)"></path><path  idx="1" transform="scale(.8) translate(9.5, -37)" d="M24.778,21.419 19.276,15.917 24.777,10.415 21.949,7.585 16.447,13.087 10.945,7.585 8.117,10.415 13.618,15.917 8.116,21.419 10.946,24.248 16.447,18.746 21.948,24.248z"><title>Remove vertex.</title></path></g></g><g  id="v-1200" display="none"><g  id="v-1185"><path  end="source" d="M 26 0 L 0 13 L 26 26 z"></path></g><g  id="v-1186"><path  end="target" d="M 26 0 L 0 13 L 26 26 z"></path></g></g><g  id="v-1199" display="none"><g  id="v-1182" transform="translate(1188.0840454101562, 654.4067840576172) "><g  event="remove"><circle r="11"></circle><path transform="scale(.8) translate(-16, -16)" d="M24.778,21.419 19.276,15.917 24.777,10.415 21.949,7.585 16.447,13.087 10.945,7.585 8.117,10.415 13.618,15.917 8.116,21.419 10.946,24.248 16.447,18.746 21.948,24.248z"></path><title>Remove link.</title></g><g  event="link:options"><circle r="11" transform="translate(25)"></circle><path fill="white" transform="scale(.55) translate(29, -16)" d="M31.229,17.736c0.064-0.571,0.104-1.148,0.104-1.736s-0.04-1.166-0.104-1.737l-4.377-1.557c-0.218-0.716-0.504-1.401-0.851-2.05l1.993-4.192c-0.725-0.91-1.549-1.734-2.458-2.459l-4.193,1.994c-0.647-0.347-1.334-0.632-2.049-0.849l-1.558-4.378C17.165,0.708,16.588,0.667,16,0.667s-1.166,0.041-1.737,0.105L12.707,5.15c-0.716,0.217-1.401,0.502-2.05,0.849L6.464,4.005C5.554,4.73,4.73,5.554,4.005,6.464l1.994,4.192c-0.347,0.648-0.632,1.334-0.849,2.05l-4.378,1.557C0.708,14.834,0.667,15.412,0.667,16s0.041,1.165,0.105,1.736l4.378,1.558c0.217,0.715,0.502,1.401,0.849,2.049l-1.994,4.193c0.725,0.909,1.549,1.733,2.459,2.458l4.192-1.993c0.648,0.347,1.334,0.633,2.05,0.851l1.557,4.377c0.571,0.064,1.148,0.104,1.737,0.104c0.588,0,1.165-0.04,1.736-0.104l1.558-4.377c0.715-0.218,1.399-0.504,2.049-0.851l4.193,1.993c0.909-0.725,1.733-1.549,2.458-2.458l-1.993-4.193c0.347-0.647,0.633-1.334,0.851-2.049L31.229,17.736zM16,20.871c-2.69,0-4.872-2.182-4.872-4.871c0-2.69,2.182-4.872,4.872-4.872c2.689,0,4.871,2.182,4.871,4.872C20.871,18.689,18.689,20.871,16,20.871z"></path><title>Link options.</title></g></g></g></g><!--z-index:32--><g   id="j_89" ><path  stroke="#d7dbe3" d="M 879 837 L 1187 629" id="v-1213" stroke-width="2" stroke-dasharray="8 8" fill="none"></path><path  fill="black" stroke="black" d="M 0 0 0 0" transform="matrix(0.8279461870449121,-0.5608075528715631,0.5608075528715631,0.8279461870449121,879.4600219726562,837)"></path><path  fill="#d7dbe3" stroke="#d7dbe3" d="M 20 0 L 0 10 L 20 20 z" id="v-1215" transform="matrix(-0.8279461870449122,0.5608075528715631,-0.5608075528715631,-0.8279461870449122,1192.1480354460398,637.2794796034523)"></path><path  d="M 879 837 L 1187 629" id="v-1214" fill="none" style="cursor: auto; pointer-events: visiblepainted;"></path><g ><g id="v-1207"  label-idx="0" cursor="move" transform="matrix(1,0,0,1,1033,733)" style="cursor: default;"><rect joint-selector="rect" id="v-1210" fill="#ffffff" rx="3" ry="3" pointer-events="none" width="167.27691650390625" height="89.08126449584961" transform="matrix(1,0,0,1,-83.6,-44.6)"></rect><text joint-selector="text" id="v-1209" font-size="24px" xml:space="preserve" y="0.8em" fill="#d7dbe3" text-anchor="middle" pointer-events="none" font-family="Open Sans" font-weight="normal" transform="matrix(1,0,0,1,0,-38.6)"><tspan dy="0" >2: reads</tspan><tspan dy="1.2em" x="0" >read-then-post</tspan><tspan dy="1.2em" x="0" >windows from</tspan></text></g><g id="v-1208"  label-idx="1" cursor="move" transform="matrix(1,0,0,1,1023,773.7999877929688)" style="cursor: default;"><rect joint-selector="rect" id="v-1212" fill="#ffffff" rx="3" ry="3"  width="0" height="0" transform="matrix(1,0,0,1,0,0)" display="none"></rect><text joint-selector="text" id="v-1211" fill="#000000" font-size="14" text-anchor="middle" pointer-events="none"></text></g></g><g  display="none" style="display: none;"></g><g  id="v-1217" display="none"><g  id="v-1205"><path  end="source" d="M 26 0 L 0 13 L 26 26 z"></path></g><g  id="v-1206"><path  end="target" d="M 26 0 L 0 13 L 26 26 z"></path></g></g><g  id="v-1216" display="none"><g  id="v-1204" transform="translate(912.1489553014381, 814.6136925237041) "><g  event="remove"><circle r="11"></circle><path transform="scale(.8) translate(-16, -16)" d="M24.778,21.419 19.276,15.917 24.777,10.415 21.949,7.585 16.447,13.087 10.945,7.585 8.117,10.415 13.618,15.917 8.116,21.419 10.946,24.248 16.447,18.746 21.948,24.248z"></path><title>Remove link.</title></g><g  event="link:options"><circle r="11" transform="translate(25)"></circle><path fill="white" transform="scale(.55) translate(29, -16)" d="M31.229,17.736c0.064-0.571,0.104-1.148,0.104-1.736s-0.04-1.166-0.104-1.737l-4.377-1.557c-0.218-0.716-0.504-1.401-0.851-2.05l1.993-4.192c-0.725-0.91-1.549-1.734-2.458-2.459l-4.193,1.994c-0.647-0.347-1.334-0.632-2.049-0.849l-1.558-4.378C17.165,0.708,16.588,0.667,16,0.667s-1.166,0.041-1.737,0.105L12.707,5.15c-0.716,0.217-1.401,0.502-2.05,0.849L6.464,4.005C5.554,4.73,4.73,5.554,4.005,6.464l1.994,4.192c-0.347,0.648-0.632,1.334-0.849,2.05l-4.378,1.557C0.708,14.834,0.667,15.412,0.667,16s0.041,1.165,0.105,1.736l4.378,1.558c0.217,0.715,0.502,1.401,0.849,2.049l-1.994,4.193c0.725,0.909,1.549,1.733,2.459,2.458l4.192-1.993c0.648,0.347,1.334,0.633,2.05,0.851l1.557,4.377c0.571,0.064,1.148,0.104,1.737,0.104c0.588,0,1.165-0.04,1.736-0.104l1.558-4.377c0.715-0.218,1.399-0.504,2.049-0.851l4.193,1.993c0.909-0.725,1.733-1.549,2.458-2.458l-1.993-4.193c0.347-0.647,0.633-1.334,0.851-2.049L31.229,17.736zM16,20.871c-2.69,0-4.872-2.182-4.872-4.871c0-2.69,2.182-4.872,4.872-4.872c2.689,0,4.871,2.182,4.871,4.872C20.871,18.689,18.689,20.871,16,20.871z"></path><title>Link options.</title></g></g></g></g><!--z-index:33--><g   id="j_90" ><path  stroke="#d7dbe3" d="M 883 1091 L 1183 1229" id="v-1230" stroke-width="2" stroke-dasharray="8 8" fill="none"></path><path  fill="black" stroke="black" d="M 0 0 0 0" transform="matrix(0.9080302373362704,0.41890462886322494,-0.41890462886322494,0.9080302373362704,883,1090.800048828125)"></path><path  fill="#d7dbe3" stroke="#d7dbe3" d="M 20 0 L 0 10 L 20 20 z" id="v-1232" transform="matrix(-0.9080301955008719,-0.41890471954687747,0.41890471954687747,-0.9080301955008719,1178.8109324939148,1238.2803354786024)"></path><path  d="M 883 1091 L 1183 1229" id="v-1231" fill="none" style="cursor: auto; pointer-events: visiblepainted;"></path><g ><g id="v-1224"  label-idx="0" cursor="move" transform="matrix(1,0,0,1,1033,1160)" style="cursor: default;"><rect joint-selector="rect" id="v-1227" fill="#ffffff" rx="3" ry="3" pointer-events="none" width="187.70693969726562" height="89.08126449584961" transform="matrix(1,0,0,1,-93.9,-44.6)"></rect><text joint-selector="text" id="v-1226" font-size="24px" xml:space="preserve" y="0.8em" fill="#d7dbe3" text-anchor="middle" pointer-events="none" font-family="Open Sans" font-weight="normal" transform="matrix(1,0,0,1,0,-38.6)"><tspan dy="0" >3: reports</tspan><tspan dy="1.2em" x="0" >invariant failures</tspan><tspan dy="1.2em" x="0" >to</tspan></text></g><g id="v-1225"  label-idx="1" cursor="move" transform="matrix(1,0,0,1,1023,1200.800048828125)" style="cursor: default;"><rect joint-selector="rect" id="v-1229" fill="#ffffff" rx="3" ry="3"  width="0" height="0" transform="matrix(1,0,0,1,0,0)" display="none"></rect><text joint-selector="text" id="v-1228" fill="#000000" font-size="14" text-anchor="middle" pointer-events="none"></text></g></g><g  display="none" style="display: none;"></g><g  id="v-1234" display="none"><g  id="v-1222"><path  end="source" d="M 26 0 L 0 13 L 26 26 z"></path></g><g  id="v-1223"><path  end="target" d="M 26 0 L 0 13 L 26 26 z"></path></g></g><g  id="v-1233" display="none"><g  id="v-1221" transform="translate(919.339618107143, 1107.7162243292858) "><g  event="remove"><circle r="11"></circle><path transform="scale(.8) translate(-16, -16)" d="M24.778,21.419 19.276,15.917 24.777,10.415 21.949,7.585 16.447,13.087 10.945,7.585 8.117,10.415 13.618,15.917 8.116,21.419 10.946,24.248 16.447,18.746 21.948,24.248z"></path><title>Remove link.</title></g><g  event="link:options"><circle r="11" transform="translate(25)"></circle><path fill="white" transform="scale(.55) translate(29, -16)" d="M31.229,17.736c0.064-0.571,0.104-1.148,0.104-1.736s-0.04-1.166-0.104-1.737l-4.377-1.557c-0.218-0.716-0.504-1.401-0.851-2.05l1.993-4.192c-0.725-0.91-1.549-1.734-2.458-2.459l-4.193,1.994c-0.647-0.347-1.334-0.632-2.049-0.849l-1.558-4.378C17.165,0.708,16.588,0.667,16,0.667s-1.166,0.041-1.737,0.105L12.707,5.15c-0.716,0.217-1.401,0.502-2.05,0.849L6.464,4.005C5.554,4.73,4.73,5.554,4.005,6.464l1.994,4.192c-0.347,0.648-0.632,1.334-0.849,2.05l-4.378,1.557C0.708,14.834,0.667,15.412,0.667,16s0.041,1.165,0.105,1.736l4.378,1.558c0.217,0.715,0.502,1.401,0.849,2.049l-1.994,4.193c0.725,0.909,1.549,1.733,2.459,2.458l4.192-1.993c0.648,0.347,1.334,0.633,2.05,0.851l1.557,4.377c0.571,0.064,1.148,0.104,1.737,0.104c0.588,0,1.165-0.04,1.736-0.104l1.558-4.377c0.715-0.218,1.399-0.504,2.049-0.851l4.193,1.993c0.909-0.725,1.733-1.549,2.458-2.458l-1.993-4.193c0.347-0.647,0.633-1.334,0.851-2.049L31.229,17.736zM16,20.871c-2.69,0-4.872-2.182-4.872-4.871c0-2.69,2.182-4.872,4.872-4.872c2.689,0,4.871,2.182,4.871,4.872C20.871,18.689,18.689,20.871,16,20.871z"></path><title>Link options.</title></g></g></g></g><!--z-index:34--><g   id="j_91" ><path  stroke="#d7dbe3" d="M 883 1511 L 1183 1409" id="v-1247" stroke-width="2" stroke-dasharray="8 8" fill="none"></path><path  fill="black" stroke="black" d="M 0 0 0 0" transform="matrix(0.9471569164578257,-0.32077059654230017,0.32077059654230017,0.9471569164578257,883,1510.800048828125)"></path><path  fill="#d7dbe3" stroke="#d7dbe3" d="M 20 0 L 0 10 L 20 20 z" id="v-1249" transform="matrix(-0.9471569164578257,0.32077059654230006,-0.32077059654230006,-0.9471569164578257,1186.2077175128138,1418.6715780429054)"></path><path  d="M 883 1511 L 1183 1409" id="v-1248" fill="none" style="cursor: auto; pointer-events: visiblepainted;"></path><g ><g id="v-1241"  label-idx="0" cursor="move" transform="matrix(1,0,0,1,1033,1460)" style="cursor: default;"><rect joint-selector="rect" id="v-1244" fill="#ffffff" rx="3" ry="3" pointer-events="none" width="173.83551025390625" height="89.08126449584961" transform="matrix(1,0,0,1,-86.9,-44.6)"></rect><text joint-selector="text" id="v-1243" font-size="24px" xml:space="preserve" y="0.8em" fill="#d7dbe3" text-anchor="middle" pointer-events="none" font-family="Open Sans" font-weight="normal" transform="matrix(1,0,0,1,0,-38.6)"><tspan dy="0" >4: contributes</tspan><tspan dy="1.2em" x="0" >injection scores</tspan><tspan dy="1.2em" x="0" >to</tspan></text></g><g id="v-1242"  label-idx="1" cursor="move" transform="matrix(1,0,0,1,1023,1500.800048828125)" style="cursor: default;"><rect joint-selector="rect" id="v-1246" fill="#ffffff" rx="3" ry="3"  width="0" height="0" transform="matrix(1,0,0,1,0,0)" display="none"></rect><text joint-selector="text" id="v-1245" fill="#000000" font-size="14" text-anchor="middle" pointer-events="none"></text></g></g><g  display="none" style="display: none;"></g><g  id="v-1251" display="none"><g  id="v-1239"><path  end="source" d="M 26 0 L 0 13 L 26 26 z"></path></g><g  id="v-1240"><path  end="target" d="M 26 0 L 0 13 L 26 26 z"></path></g></g><g  id="v-1250" display="none"><g  id="v-1238" transform="translate(920.8709097927886, 1498.123890670452) "><g  event="remove"><circle r="11"></circle><path transform="scale(.8) translate(-16, -16)" d="M24.778,21.419 19.276,15.917 24.777,10.415 21.949,7.585 16.447,13.087 10.945,7.585 8.117,10.415 13.618,15.917 8.116,21.419 10.946,24.248 16.447,18.746 21.948,24.248z"></path><title>Remove link.</title></g><g  event="link:options"><circle r="11" transform="translate(25)"></circle><path fill="white" transform="scale(.55) translate(29, -16)" d="M31.229,17.736c0.064-0.571,0.104-1.148,0.104-1.736s-0.04-1.166-0.104-1.737l-4.377-1.557c-0.218-0.716-0.504-1.401-0.851-2.05l1.993-4.192c-0.725-0.91-1.549-1.734-2.458-2.459l-4.193,1.994c-0.647-0.347-1.334-0.632-2.049-0.849l-1.558-4.378C17.165,0.708,16.588,0.667,16,0.667s-1.166,0.041-1.737,0.105L12.707,5.15c-0.716,0.217-1.401,0.502-2.05,0.849L6.464,4.005C5.554,4.73,4.73,5.554,4.005,6.464l1.994,4.192c-0.347,0.648-0.632,1.334-0.849,2.05l-4.378,1.557C0.708,14.834,0.667,15.412,0.667,16s0.041,1.165,0.105,1.736l4.378,1.558c0.217,0.715,0.502,1.401,0.849,2.049l-1.994,4.193c0.725,0.909,1.549,1.733,2.459,2.458l4.192-1.993c0.648,0.347,1.334,0.633,2.05,0.851l1.557,4.377c0.571,0.064,1.148,0.104,1.737,0.104c0.588,0,1.165-0.04,1.736-0.104l1.558-4.377c0.715-0.218,1.399-0.504,2.049-0.851l4.193,1.993c0.909-0.725,1.733-1.549,2.458-2.458l-1.993-4.193c0.347-0.647,0.633-1.334,0.851-2.049L31.229,17.736zM16,20.871c-2.69,0-4.872-2.182-4.872-4.871c0-2.69,2.182-4.872,4.872-4.872c2.689,0,4.871,2.182,4.871,4.872C20.871,18.689,18.689,20.871,16,20.871z"></path><title>Link options.</title></g></g></g></g><!--z-index:35--><g   id="j_92" ><path  stroke="#d7dbe3" d="M 1633 1333 L 1933 1333" id="v-1267" stroke-width="2" stroke-dasharray="8 8" fill="none"></path><path  fill="black" stroke="black" d="M 0 0 0 0" transform="matrix(0.9999999999999999,0,0,0.9999999999999999,1633,1333)"></path><path  fill="#d7dbe3" stroke="#d7dbe3" d="M 20 0 L 0 10 L 20 20 z" id="v-1269" transform="matrix(-0.9999999999999999,1.224646799147353e-16,-1.224646799147353e-16,-0.9999999999999999,1933,1343)"></path><path  d="M 1633 1333 L 1933 1333" id="v-1268" fill="none" style="cursor: auto; pointer-events: visiblepainted;"></path><g ><g id="v-1258"  label-idx="0" cursor="move" transform="matrix(1,0,0,1,1783,1319.5999755859375)" style="cursor: default;"><rect joint-selector="rect" id="v-1262" fill="#ffffff" rx="3" ry="3" pointer-events="none" width="193.31454467773438" height="60.281253814697266" transform="matrix(1,0,0,1,-96.7,-30.2)"></rect><text joint-selector="text" id="v-1261" font-size="24px" xml:space="preserve" y="0.8em" fill="#d7dbe3" text-anchor="middle" pointer-events="none" font-family="Open Sans" font-weight="normal" transform="matrix(1,0,0,1,0,-24.2)"><tspan dy="0" >5: emits indicator</tspan><tspan dy="1.2em" x="0" >records to</tspan></text></g><g id="v-1259"  label-idx="1" cursor="move" transform="matrix(1,0,0,1,1783,1364.4000244140625)" style="cursor: default;"><rect joint-selector="rect" id="v-1264" fill="#ffffff" rx="3" ry="3"  pointer-events="none" width="99.29710388183594" height="23.08624839782715" transform="matrix(1,0,0,1,-49.6,-11.5)" style="display: block;"></rect><text joint-selector="text" id="v-1263" font-size="16.799999999999997px" xml:space="preserve" y="0.8em" fill="#d7dbe3" text-anchor="middle" pointer-events="none"  font-family="Open Sans" font-weight="normal" transform="matrix(1,0,0,1,0,-6.1)" style="display: block;"><tspan dy="0" >[OTLP/HTTP]</tspan></text></g><g id="v-1260"  label-idx="2" cursor="move" transform="matrix(1,0,0,1,1773,1372.800048828125)" style="cursor: default;"><rect joint-selector="rect" id="v-1266" fill="#ffffff" rx="3" ry="3"  width="0" height="0" transform="matrix(1,0,0,1,0,0)" display="none"></rect><text joint-selector="text" id="v-1265" fill="#000000" font-size="14" text-anchor="middle" pointer-events="none"></text></g></g><g  display="none" style="display: none;"></g><g  id="v-1271" display="none"><g  id="v-1256"><path  end="source" d="M 26 0 L 0 13 L 26 26 z"></path></g><g  id="v-1257"><path  end="target" d="M 26 0 L 0 13 L 26 26 z"></path></g></g><g  id="v-1270" display="none"><g  id="v-1255" transform="translate(1673, 1333) "><g  event="remove"><circle r="11"></circle><path transform="scale(.8) translate(-16, -16)" d="M24.778,21.419 19.276,15.917 24.777,10.415 21.949,7.585 16.447,13.087 10.945,7.585 8.117,10.415 13.618,15.917 8.116,21.419 10.946,24.248 16.447,18.746 21.948,24.248z"></path><title>Remove link.</title></g><g  event="link:options"><circle r="11" transform="translate(25)"></circle><path fill="white" transform="scale(.55) translate(29, -16)" d="M31.229,17.736c0.064-0.571,0.104-1.148,0.104-1.736s-0.04-1.166-0.104-1.737l-4.377-1.557c-0.218-0.716-0.504-1.401-0.851-2.05l1.993-4.192c-0.725-0.91-1.549-1.734-2.458-2.459l-4.193,1.994c-0.647-0.347-1.334-0.632-2.049-0.849l-1.558-4.378C17.165,0.708,16.588,0.667,16,0.667s-1.166,0.041-1.737,0.105L12.707,5.15c-0.716,0.217-1.401,0.502-2.05,0.849L6.464,4.005C5.554,4.73,4.73,5.554,4.005,6.464l1.994,4.192c-0.347,0.648-0.632,1.334-0.849,2.05l-4.378,1.557C0.708,14.834,0.667,15.412,0.667,16s0.041,1.165,0.105,1.736l4.378,1.558c0.217,0.715,0.502,1.401,0.849,2.049l-1.994,4.193c0.725,0.909,1.549,1.733,2.459,2.458l4.192-1.993c0.648,0.347,1.334,0.633,2.05,0.851l1.557,4.377c0.571,0.064,1.148,0.104,1.737,0.104c0.588,0,1.165-0.04,1.736-0.104l1.558-4.377c0.715-0.218,1.399-0.504,2.049-0.851l4.193,1.993c0.909-0.725,1.733-1.549,2.458-2.458l-1.993-4.193c0.347-0.647,0.633-1.334,0.851-2.049L31.229,17.736zM16,20.871c-2.69,0-4.872-2.182-4.872-4.871c0-2.69,2.182-4.872,4.872-4.872c2.689,0,4.871,2.182,4.871,4.872C20.871,18.689,18.689,20.871,16,20.871z"></path><title>Link options.</title></g></g></g></g><!--z-index:36--><g   id="j_93" ><path  stroke="#d7dbe3" d="M 2383 1333 L 2683 1333" id="v-1284" stroke-width="2" stroke-dasharray="8 8" fill="none"></path><path  fill="black" stroke="black" d="M 0 0 0 0" transform="matrix(0.9999999999999999,0,0,0.9999999999999999,2383,1333)"></path><path  fill="#d7dbe3" stroke="#d7dbe3" d="M 20 0 L 0 10 L 20 20 z" id="v-1286" transform="matrix(-0.9999999999999999,1.224646799147353e-16,-1.224646799147353e-16,-0.9999999999999999,2683,1343)"></path><path  d="M 2383 1333 L 2683 1333" id="v-1285" fill="none" style="cursor: auto; pointer-events: visiblepainted;"></path><g ><g id="v-1278"  label-idx="0" cursor="move" transform="matrix(1,0,0,1,2533,1333)" style="cursor: default;"><rect joint-selector="rect" id="v-1281" fill="#ffffff" rx="3" ry="3" pointer-events="none" width="165.44052124023438" height="89.08126449584961" transform="matrix(1,0,0,1,-82.7,-44.6)"></rect><text joint-selector="text" id="v-1280" font-size="24px" xml:space="preserve" y="0.8em" fill="#d7dbe3" text-anchor="middle" pointer-events="none" font-family="Open Sans" font-weight="normal" transform="matrix(1,0,0,1,0,-38.6)"><tspan dy="0" >6: routes hosts</tspan><tspan dy="1.2em" x="0" >and canary</tspan><tspan dy="1.2em" x="0" >hashes to</tspan></text></g><g id="v-1279"  label-idx="1" cursor="move" transform="matrix(1,0,0,1,2523,1373.800048828125)" style="cursor: default;"><rect joint-selector="rect" id="v-1283" fill="#ffffff" rx="3" ry="3"  width="0" height="0" transform="matrix(1,0,0,1,0,0)" display="none"></rect><text joint-selector="text" id="v-1282" fill="#000000" font-size="14" text-anchor="middle" pointer-events="none"></text></g></g><g  display="none" style="display: none;"></g><g  id="v-1288" display="none"><g  id="v-1276"><path  end="source" d="M 26 0 L 0 13 L 26 26 z"></path></g><g  id="v-1277"><path  end="target" d="M 26 0 L 0 13 L 26 26 z"></path></g></g><g  id="v-1287" display="none"><g  id="v-1275" transform="translate(2423, 1333) "><g  event="remove"><circle r="11"></circle><path transform="scale(.8) translate(-16, -16)" d="M24.778,21.419 19.276,15.917 24.777,10.415 21.949,7.585 16.447,13.087 10.945,7.585 8.117,10.415 13.618,15.917 8.116,21.419 10.946,24.248 16.447,18.746 21.948,24.248z"></path><title>Remove link.</title></g><g  event="link:options"><circle r="11" transform="translate(25)"></circle><path fill="white" transform="scale(.55) translate(29, -16)" d="M31.229,17.736c0.064-0.571,0.104-1.148,0.104-1.736s-0.04-1.166-0.104-1.737l-4.377-1.557c-0.218-0.716-0.504-1.401-0.851-2.05l1.993-4.192c-0.725-0.91-1.549-1.734-2.458-2.459l-4.193,1.994c-0.647-0.347-1.334-0.632-2.049-0.849l-1.558-4.378C17.165,0.708,16.588,0.667,16,0.667s-1.166,0.041-1.737,0.105L12.707,5.15c-0.716,0.217-1.401,0.502-2.05,0.849L6.464,4.005C5.554,4.73,4.73,5.554,4.005,6.464l1.994,4.192c-0.347,0.648-0.632,1.334-0.849,2.05l-4.378,1.557C0.708,14.834,0.667,15.412,0.667,16s0.041,1.165,0.105,1.736l4.378,1.558c0.217,0.715,0.502,1.401,0.849,2.049l-1.994,4.193c0.725,0.909,1.549,1.733,2.459,2.458l4.192-1.993c0.648,0.347,1.334,0.633,2.05,0.851l1.557,4.377c0.571,0.064,1.148,0.104,1.737,0.104c0.588,0,1.165-0.04,1.736-0.104l1.558-4.377c0.715-0.218,1.399-0.504,2.049-0.851l4.193,1.993c0.909-0.725,1.733-1.549,2.458-2.458l-1.993-4.193c0.347-0.647,0.633-1.334,0.851-2.049L31.229,17.736zM16,20.871c-2.69,0-4.872-2.182-4.872-4.871c0-2.69,2.182-4.872,4.872-4.872c2.689,0,4.871,2.182,4.871,4.872C20.871,18.689,18.689,20.871,16,20.871z"></path><title>Link options.</title></g></g></g></g><!--z-index:37--><!--z-index:38--><!--z-index:39--><!--z-index:40--><!--z-index:41--><!--z-index:42--><!--z-index:43--><!--z-index:44--><!--z-index:45--><!--z-index:46--><!--z-index:47--><!--z-index:48--><!--z-index:49--><!--z-index:50--><!--z-index:51--></g><g ></g><g ></g><g ></g></g></svg>